<svg xmlns="http://www.w3.org/2000/svg" xmlns:xlink="http://www.w3.org/1999/xlink" id="Layer_1" x="0px" y="0px" viewBox="0 0 1227.69 310" style="enable-background:new 0 0 1227.69 310;" xml:space="preserve"><style type="text/css">	.st0{fill:#F5862E;}	.st1{fill:#6C7A8E;}	.st2{fill:#F6C22D;}	.st3{fill:#FFFFFF;}</style><g>	<path class="st0" d="M77.6,183.22V57.69h43.97c15.23,0,26.78,2.92,34.66,8.75c7.87,5.83,11.81,14.38,11.81,25.65  c0,6.15-1.58,11.57-4.74,16.25c-3.16,4.69-7.56,8.12-13.19,10.3c6.44,1.61,11.51,4.86,15.22,9.74c3.71,4.89,5.56,10.87,5.56,17.93  c0,12.07-3.85,21.21-11.55,27.42c-7.7,6.21-18.68,9.37-32.93,9.48H77.6z M103.46,110.28h19.14c13.05-0.23,19.57-5.43,19.57-15.6  c0-5.69-1.65-9.79-4.96-12.29c-3.31-2.5-8.52-3.75-15.65-3.75h-18.11V110.28z M103.46,128.56v33.88h22.16  c6.09,0,10.85-1.45,14.27-4.36c3.42-2.9,5.13-6.91,5.13-12.03c0-11.5-5.95-17.33-17.85-17.5H103.46z"></path>	<path class="st0" d="M293.4,123.3c0,12.36-2.19,23.19-6.55,32.5c-4.37,9.31-10.62,16.5-18.75,21.56  c-8.13,5.06-17.46,7.59-27.98,7.59c-10.4,0-19.69-2.5-27.85-7.5s-14.48-12.14-18.97-21.43c-4.48-9.28-6.75-19.96-6.81-32.03v-6.21  c0-12.36,2.23-23.24,6.68-32.63c4.45-9.4,10.75-16.61,18.88-21.64c8.13-5.03,17.43-7.54,27.89-7.54s19.76,2.51,27.89,7.54  c8.13,5.03,14.43,12.24,18.88,21.64c4.45,9.4,6.68,20.25,6.68,32.55V123.3z M267.19,117.61c0-13.16-2.36-23.16-7.07-30  c-4.71-6.84-11.44-10.26-20.17-10.26c-8.68,0-15.38,3.38-20.09,10.13s-7.1,16.65-7.15,29.7v6.12c0,12.82,2.36,22.76,7.07,29.83  c4.71,7.07,11.5,10.6,20.35,10.6c8.68,0,15.35-3.41,20-10.22c4.66-6.81,7.01-16.74,7.07-29.79V117.61z"></path>	<path class="st0" d="M339.69,183.22h-25.87V57.69h25.87V183.22z"></path>	<path class="st0" d="M428.75,150.28c0-4.88-1.72-8.64-5.17-11.25c-3.45-2.61-9.66-5.37-18.62-8.28c-8.97-2.9-16.07-5.76-21.3-8.58  c-14.26-7.7-21.38-18.08-21.38-31.12c0-6.78,1.91-12.83,5.73-18.15c3.82-5.32,9.31-9.47,16.47-12.46  c7.16-2.99,15.19-4.48,24.1-4.48c8.97,0,16.96,1.62,23.97,4.87c7.01,3.25,12.46,7.83,16.34,13.75s5.82,12.65,5.82,20.17h-25.86  c0-5.75-1.81-10.22-5.43-13.41c-3.62-3.19-8.71-4.78-15.26-4.78c-6.32,0-11.24,1.34-14.74,4.01c-3.51,2.67-5.26,6.19-5.26,10.56  c0,4.08,2.06,7.5,6.17,10.26c4.11,2.76,10.16,5.35,18.15,7.76c14.71,4.43,25.43,9.92,32.16,16.47  c6.72,6.55,10.09,14.72,10.09,24.49c0,10.86-4.11,19.39-12.33,25.56c-8.22,6.18-19.28,9.27-33.19,9.27  c-9.66,0-18.45-1.77-26.38-5.3s-13.98-8.38-18.15-14.53c-4.17-6.15-6.25-13.28-6.25-21.38h25.95c0,13.85,8.28,20.78,24.83,20.78  c6.15,0,10.95-1.25,14.4-3.75C427.03,158.26,428.75,154.77,428.75,150.28z"></path>	<path class="st0" d="M547.73,128.82h-49.66v33.62h58.28v20.78h-84.15V57.69h83.97v20.95h-58.11v29.92h49.66V128.82z"></path></g><rect id="rect5149_3_" x="796.59" y="201" class="st1" width="401.43" height="18.58"></rect><g>	<path class="st0" d="M900.84,147.44l16.9-89.32h25.78l-27.85,125.53h-26.04L869.2,99.68l-20.43,83.98h-26.04L794.88,58.12h25.78  l16.98,89.15l20.69-89.15h21.9L900.84,147.44z"></path>	<path class="st0" d="M1033.01,129.25h-49.66v33.62h58.28v20.78h-84.15V58.12h83.97v20.95h-58.11v29.92h49.66V129.25z"></path>	<path class="st0" d="M1056.8,183.65V58.12h43.97c15.23,0,26.78,2.92,34.66,8.75c7.87,5.83,11.81,14.38,11.81,25.65  c0,6.15-1.58,11.57-4.74,16.25c-3.16,4.69-7.56,8.12-13.19,10.3c6.44,1.61,11.51,4.86,15.22,9.74c3.71,4.88,5.56,10.86,5.56,17.93  c0,12.07-3.85,21.21-11.55,27.42c-7.7,6.21-18.68,9.37-32.93,9.48H1056.8z M1082.67,110.71h19.14c13.05-0.23,19.57-5.43,19.57-15.6  c0-5.69-1.65-9.79-4.96-12.29c-3.31-2.5-8.52-3.75-15.65-3.75h-18.11V110.71z M1082.67,128.99v33.88h22.16  c6.09,0,10.85-1.45,14.27-4.35c3.42-2.9,5.13-6.91,5.13-12.03c0-11.5-5.95-17.33-17.85-17.5H1082.67z"></path></g><g>	<circle id="circle1628_13_" class="st2" cx="678.86" cy="137.73" r="99.2"></circle>	<g id="g1634_13_" transform="translate(89.098417,-238.88557)">		<path id="path1630_13_" class="st3" d="M516.4,374.33l38.08,33.85v26.33l-50.78-50.78v-19.75l50.78-50.78v26.33L516.4,374.33z"></path>		<path id="path1632_13_" class="st3" d="M662.62,374.8l-38.08,33.85v26.33l50.78-50.78v-19.75l-50.78-50.78v26.33L662.62,374.8z"></path>	</g>	<path id="path1660_12_" class="st3" d="M653,214.36c13.16-14.57,3.76-20.69,1.41-27.74c-4.7-12.69,9.87-18.34,13.63-18.81h0.94  c2.82,0.47,6.58,2.35,8.93,4.7l0,0l0.47,0.47c1.88,3.76,9.4,17.4-3.76,31.5C664.28,214.36,652.06,215.3,653,214.36z"></path>	<path id="path1662_12_" class="st3" d="M677.12,163.81c-1.9-1.43-3.8-2.38-6.18-2.85l-2.38-0.95v-2.38  c0.48-5.23,0.95-6.66,1.43-9.51c2.85-17.6,31.87-86.56,34.72-86.09c3.33,0.48-10.46,78.48-19.98,95.6  c-2.85,5.23-6.18,7.13-6.18,7.13C678.07,164.76,677.6,164.29,677.12,163.81L677.12,163.81z"></path>	<path class="st1" d="M668.38,188.39c-2.11,5.77-5.79,6.86-9.47,7.32c1.88,4.7-0.43,12.75-6.11,18.85  c-0.94,0.94,21.52-1.14,26.57-16.6c-3.23-0.46-9.22-3.04-10.78-9.56C668.57,188.29,668.42,188.29,668.38,188.39z"></path></g><path class="st1" d="M555.54,232.42c82.42-43.35-131.96-29.06-180.55-29.54c0,0,0.48,0,0,0H29.66v18.58h341.99 c95.63,0.26,210.56-14.29,162.45,12.39c-100.04,55.26,49.74,49.66,115.16-16.86C602.14,258.28,453.59,285.78,555.54,232.42z"></path><g>	<path class="st1" d="M1192.92,54.36c0,10.54-8.27,18.81-19.04,18.81c-10.65,0-19.15-8.27-19.15-18.81  c0-10.31,8.5-18.58,19.15-18.58C1184.65,35.77,1192.92,44.05,1192.92,54.36z M1159.5,54.36c0,8.27,6.12,14.84,14.5,14.84  c8.16,0,14.16-6.57,14.16-14.73c0-8.27-6-14.96-14.28-14.96C1165.61,39.51,1159.5,46.2,1159.5,54.36z M1170.94,64.1h-4.31V45.52  c1.7-0.34,4.08-0.57,7.14-0.57c3.51,0,5.1,0.57,6.46,1.36c1.02,0.79,1.81,2.27,1.81,4.08c0,2.04-1.59,3.63-3.85,4.31v0.23  c1.81,0.68,2.83,2.04,3.4,4.53c0.57,2.83,0.91,3.97,1.36,4.65h-4.65c-0.57-0.68-0.91-2.38-1.47-4.53  c-0.34-2.04-1.47-2.95-3.85-2.95h-2.04V64.1z M1171.05,53.56h2.04c2.38,0,4.31-0.79,4.31-2.72c0-1.7-1.25-2.83-3.97-2.83  c-1.13,0-1.93,0.11-2.38,0.23V53.56z"></path></g><g></g><g></g><g></g><g></g><g></g><g></g><g></g><g></g><g></g><g></g><g></g><g></g><g></g><g></g><g></g></svg>