<?xml version="1.0" encoding="utf-8"?>
<!-- Generator: Adobe Illustrator 25.4.1, SVG Export Plug-In . SVG Version: 6.00 Build 0)  -->
<svg version="1.1" xmlns="http://www.w3.org/2000/svg" xmlns:xlink="http://www.w3.org/1999/xlink" x="0px" y="0px"
	 viewBox="0 0 203.7 50.01" style="enable-background:new 0 0 203.7 50.01;" xml:space="preserve">
<style type="text/css">
	.st0{fill:#FFFFFF;}
	.st1{clip-path:url(#SVGID_00000090286782260807487210000016651076340653695909_);fill:#D65F00;}
	.st2{clip-path:url(#SVGID_00000090286782260807487210000016651076340653695909_);fill:#0055B8;}
	.st3{clip-path:url(#SVGID_00000032622967358358653290000003883777940192573071_);fill:#0055B8;}
	.st4{clip-path:url(#SVGID_00000032622967358358653290000003883777940192573071_);fill:#9EB6E3;}
	.st5{clip-path:url(#SVGID_00000007417187030549594680000012767461240186616713_);fill:#0055B8;}
	.st6{fill:#E6E6E7;}
	.st7{fill:#929496;}
	.st8{opacity:0.1;clip-path:url(#SVGID_00000012465363726572701170000008163150265305770386_);}
	.st9{fill:#D65F00;}
	.st10{fill:#F2F1EB;}
	.st11{fill:#8A8C8B;}
	.st12{clip-path:url(#SVGID_00000095326583193116683740000011702737128954765219_);}
	.st13{fill:#BDBEBD;}
	.st14{fill:#858687;}
	.st15{fill:none;stroke:#D4762F;stroke-width:5.5116;stroke-linecap:round;stroke-linejoin:round;stroke-miterlimit:10;}
	.st16{fill:#D4762F;}
	.st17{fill:#87A7D9;}
	.st18{opacity:0.62;}
	.st19{fill:none;stroke:#344154;stroke-width:1.7224;stroke-linecap:round;stroke-linejoin:round;stroke-miterlimit:10;}
	.st20{fill:none;stroke:#344154;stroke-width:1.7224;stroke-linecap:round;stroke-miterlimit:10;}
	.st21{fill:#045CA8;}
	.st22{fill:#DE600E;}
	.st23{fill:#0455B8;}
	.st24{opacity:0.23;fill:#045CA8;}
	.st25{clip-path:url(#SVGID_00000054240184433256118960000012799844968254713772_);}
	.st26{fill:#EDEBEB;}
	.st27{fill:#EE7623;}
	.st28{fill:#00ACEC;}
	.st29{clip-path:url(#SVGID_00000079486408386087524800000016572921098950168463_);}
	.st30{clip-path:url(#SVGID_00000170253896345506837660000006333849254704479913_);}
	.st31{clip-path:url(#SVGID_00000160906590936399288340000009106739729858720400_);}
	.st32{fill:#272525;}
	.st33{fill:none;stroke:#040405;stroke-width:0.1984;stroke-miterlimit:10;}
	.st34{fill:#011E41;}
	.st35{opacity:0.1;clip-path:url(#SVGID_00000054240184433256118960000012799844968254713772_);}
	.st36{fill:none;stroke:#FFFFFF;stroke-width:7.5696;stroke-miterlimit:10;}
	.st37{clip-path:url(#SVGID_00000143616267068564394550000004040780583995138195_);}
	.st38{fill:#1D3366;}
	.st39{fill:#254287;}
	.st40{opacity:0.19;clip-path:url(#SVGID_00000005227580704777934500000017215153549459738763_);}
	.st41{fill:#4270BA;}
</style>
<g id="Grid">
</g>
<g id="header">
	<g>
		<defs>
			<rect id="SVGID_1_" x="5.78" y="1.12" width="194.55" height="47.77"/>
		</defs>
		<clipPath id="SVGID_00000165214944882706019400000005256728307977866673_">
			<use xlink:href="#SVGID_1_"  style="overflow:visible;"/>
		</clipPath>
		<path style="clip-path:url(#SVGID_00000165214944882706019400000005256728307977866673_);fill:#D65F00;" d="M37.41,33.32
			c0,2.78,1.23,5.72,4.43,5.72c2.13,0,3.62-1.42,3.98-3.81h3.68c-0.68,4.33-3.36,6.72-7.66,6.72c-5.24,0-8.11-3.72-8.11-8.63
			c0-5.04,2.75-8.99,8.24-8.99c3.88,0,7.18,1.94,7.53,6.04h-3.68c-0.29-2.04-1.78-3.14-3.81-3.14
			C40.09,27.25,37.41,28.25,37.41,33.32 M66.37,34.1H54.09c0,2.62,1.42,4.95,4.49,4.95c2.13,0,3.43-0.94,4.07-2.78h3.49
			c-0.81,3.65-3.91,5.69-7.56,5.69c-5.24,0-8.18-3.65-8.18-8.79c0-4.75,3.1-8.82,8.08-8.82C63.75,24.34,66.98,29.09,66.37,34.1
			 M62.68,31.68c-0.13-2.33-1.71-4.43-4.2-4.43c-2.55,0-4.3,1.94-4.4,4.43H62.68z M71.41,28.02h-0.06v-3.23h-3.46V41.5h3.68v-7.95
			c0-3.69,2-5.72,4.53-5.72c0.52,0,1.07,0.1,1.58,0.16v-3.56c-0.32-0.03-0.55-0.1-1.39-0.1C74.03,24.34,71.83,26.25,71.41,28.02
			 M79.36,21.91h3.68v-3.49h-3.68V21.91z M79.36,41.5h3.68V24.79h-3.68V41.5z M96.1,34.49c0,2.59-1.03,4.56-4.1,4.56
			c-2.01,0-3.2-1.07-3.2-4.01V24.79h-3.68v10.6c0,4.36,1.88,6.56,6.24,6.56c1.84,0,3.85-1.1,4.75-2.78h0.06v2.33h3.62V24.79H96.1
			V34.49z M120.4,24.34c-2.42,0-4.01,1.07-5.24,2.78c-0.74-1.91-2.65-2.78-4.69-2.78c-2.65,0-4.04,1.13-5.14,2.78h-0.1v-2.33h-3.49
			V41.5h3.69v-9.92c0-2.78,1.74-4.33,3.65-4.33c2.23,0,2.94,1.23,2.94,3.52V41.5h3.68v-9.79c0-2.81,1.07-4.46,3.55-4.46
			c2.88,0,3.04,1.84,3.04,4.49v9.76h3.69V29.96C125.99,25.89,123.92,24.34,120.4,24.34"/>
		<path style="clip-path:url(#SVGID_00000165214944882706019400000005256728307977866673_);fill:#0055B8;" d="M135.95,35.65v5.83
			h1.14v-6.02c0-2.23-0.8-3.61-3.42-3.61c-1.32,0-2.57,0.76-2.99,1.88h-0.04v-1.61h-1.14v9.35h1.14v-5.45
			c0.04-1.83,1.12-3.21,2.94-3.21C135.42,32.83,135.95,34.04,135.95,35.65"/>
		<path style="clip-path:url(#SVGID_00000165214944882706019400000005256728307977866673_);fill:#0055B8;" d="M142.29,31.87
			c-2.97,0-4.22,2.48-4.22,4.95c0,2.66,1.25,4.95,4.22,4.95c2.36,0,3.59-1.23,4.08-3.35h-1.14c-0.36,1.41-1.27,2.39-2.94,2.39
			c-2.19,0-3.06-2.01-3.08-3.68h7.19C146.49,34.49,145.3,31.87,142.29,31.87 M139.21,36.16c0.18-1.7,1.21-3.33,3.08-3.33
			c1.85,0,2.92,1.61,2.97,3.33H139.21z"/>
		<path style="clip-path:url(#SVGID_00000165214944882706019400000005256728307977866673_);fill:#0055B8;" d="M149.05,29.33h-1.14
			v2.81h-1.63v0.96h1.63v6.4c-0.02,1.59,0.51,2.1,2.03,2.1c0.34,0,0.67-0.04,1.01-0.04v-0.98c-0.33,0.04-0.65,0.05-0.98,0.05
			c-0.82-0.05-0.92-0.49-0.92-1.23v-6.3h1.9v-0.96h-1.9V29.33z"/>
		<polygon style="clip-path:url(#SVGID_00000165214944882706019400000005256728307977866673_);fill:#0055B8;" points="164.45,32.14 
			163.24,32.14 160.84,40.15 160.81,40.15 158.53,32.14 157.24,32.14 154.96,40.15 154.92,40.15 152.53,32.14 151.31,32.14 
			154.32,41.49 155.57,41.49 157.85,33.62 157.89,33.62 160.19,41.49 161.44,41.49 		"/>
		<path style="clip-path:url(#SVGID_00000165214944882706019400000005256728307977866673_);fill:#0055B8;" d="M168.92,31.87
			c-2.86,0-4.42,2.26-4.42,4.95c0,2.68,1.56,4.95,4.42,4.95c2.86,0,4.42-2.26,4.42-4.95C173.35,34.13,171.79,31.87,168.92,31.87
			 M168.92,40.8c-2.19,0-3.28-1.99-3.28-3.99c0-1.99,1.09-3.99,3.28-3.99c2.19,0,3.28,1.99,3.28,3.99
			C172.2,38.81,171.12,40.8,168.92,40.8"/>
		<path style="clip-path:url(#SVGID_00000165214944882706019400000005256728307977866673_);fill:#0055B8;" d="M175.79,34.33h-0.04
			v-2.19h-1.05v9.35h1.14V36.5c0-1.94,1.41-3.46,3.48-3.35v-1.14C177.64,31.94,176.37,32.83,175.79,34.33"/>
		<polygon style="clip-path:url(#SVGID_00000165214944882706019400000005256728307977866673_);fill:#0055B8;" points="181.21,37.94 
			183.06,36.4 186.75,41.49 188.18,41.49 183.93,35.6 187.91,32.14 186.39,32.14 181.21,36.67 181.21,28.55 180.07,28.55 
			180.07,41.49 181.21,41.49 		"/>
		<path style="clip-path:url(#SVGID_00000165214944882706019400000005256728307977866673_);fill:#0055B8;" d="M193.17,36.36
			l-1.52-0.34c-0.78-0.2-1.94-0.56-1.94-1.58c0-1.21,1.2-1.61,2.21-1.61c1.31,0,2.39,0.63,2.45,2.05h1.14
			c-0.07-2.03-1.56-3.01-3.42-3.01c-1.65,0-3.51,0.72-3.51,2.63c0,1.59,1.12,2.1,2.61,2.5l1.47,0.33c1.03,0.25,2.05,0.62,2.05,1.7
			c0,1.3-1.48,1.78-2.55,1.78c-1.52,0-2.66-0.8-2.75-2.34h-1.14c0.18,2.28,1.67,3.3,3.84,3.3c1.74,0,3.75-0.78,3.75-2.81
			C195.83,37.32,194.47,36.56,193.17,36.36"/>
	</g>
	<g>
		<defs>
			<rect id="SVGID_00000046297225983505766600000002509193774230906559_" x="5.78" y="1.12" width="194.54" height="47.77"/>
		</defs>
		<clipPath id="SVGID_00000168820721178905371070000017864682626917074861_">
			<use xlink:href="#SVGID_00000046297225983505766600000002509193774230906559_"  style="overflow:visible;"/>
		</clipPath>
		<path style="clip-path:url(#SVGID_00000168820721178905371070000017864682626917074861_);fill:#0055B8;" d="M52.15,15.91
			c-0.91,0.22-1.47,1.15-1.25,2.06c0.22,0.91,1.14,1.47,2.06,1.25c0.91-0.22,1.47-1.15,1.25-2.06
			C53.98,16.25,53.07,15.69,52.15,15.91"/>
		<path style="clip-path:url(#SVGID_00000168820721178905371070000017864682626917074861_);fill:#0055B8;" d="M47.46,8.09
			c0.61-0.15,1.23-0.11,1.84-0.01C38.31-1.59,21.93-1.27,11.76,9.61C2.95,20.41,4.05,35.47,13.9,45.2c1.69,1.57,3.28,2.52,5.04,3.49
			c1.02,0.56,1.78-0.15,0.49-0.92c-1.14-0.69-2.09-1.49-3.07-2.32c-8.64-8.27-9.83-21.22-2.18-30.56c8.36-8.89,21.53-9.53,31.1-2.66
			c-0.04-0.12-0.08-0.23-0.11-0.36C44.76,10.19,45.78,8.5,47.46,8.09"/>
		<path style="clip-path:url(#SVGID_00000168820721178905371070000017864682626917074861_);fill:#0055B8;" d="M52.02,11.74
			c-0.34-1.39-1.73-2.24-3.12-1.9c-1.39,0.34-2.23,1.74-1.89,3.12c0.34,1.39,1.74,2.23,3.12,1.9
			C51.51,14.53,52.36,13.13,52.02,11.74"/>
		<path style="clip-path:url(#SVGID_00000168820721178905371070000017864682626917074861_);fill:#9EB6E3;" d="M33.7,13.26
			c0.23-0.63,0.93-0.95,1.56-0.71c0.63,0.23,0.94,0.93,0.71,1.56c-0.24,0.63-0.93,0.94-1.56,0.71
			C33.78,14.58,33.46,13.88,33.7,13.26 M39.28,45.26c-0.84,0.35-1.7,0.67-2.59,0.91c-8.33,1.76-16.42-2.77-18.84-11.02
			c-1.86-8.48,3.04-16.48,10.92-19.34c-0.08-0.02-0.17-0.05-0.25-0.08c-1.15-0.43-1.74-1.72-1.31-2.87
			c0.16-0.42,0.43-0.77,0.73-1.08c-10.09,2.58-16.47,12.34-14.16,22.67c2.81,9.51,12.11,14.87,21.78,12.99
			c1.52-0.33,2.76-0.84,4.09-1.5C40.3,45.63,40.27,44.85,39.28,45.26 M29.91,15.1c0.95,0.35,2.01-0.12,2.36-1.07
			c0.36-0.95-0.12-2.01-1.07-2.37c-0.95-0.36-2.01,0.13-2.36,1.08C28.47,13.68,28.95,14.74,29.91,15.1"/>
	</g>
</g>
<g id="presentation">
</g>
<g id="partners">
</g>
<g id="section_1">
</g>
<g id="quote">
</g>
<g id="News">
</g>
<g id="footer">
</g>
<g id="Styles">
</g>
</svg>
